
<global>
amp_veltrack=0
</global>

<group>
amp_veltrack=0
ampeg_decay=20
ampeg_sustain=0
group_label=Group_0-45
lpc_hicc1=42
lpc_locc1=0

<region>
hikey=a#3
hivel=127
lokey=a3
lovel=1
lpc=tnp8QhrB3MJuahhCjHuAwSJRDEJzK8VAKEYIwczPIcHMAAdB9G69wGb7IsBo/UTAlGfuQLTIasCzuXvALtYWQZzmZMBlDoBAYIp0QOPJvsAuJwbB95SDQEKbfz/8bgVA
lpc_rms=-32.55
offset=729
pitch_keycenter=a#3
sample=Clarinet_invertedmordent_wholetone_PP_A#3.opus
tune=-9
</region>

<region>
hikey=a#4
hivel=127
lokey=a4
lovel=1
lpc=1VuXQmOnC8OjGCFCNwcDQgrDwkGnA+/B2I2pwO3rWcE4XYhBp81kQKbJkUDUSt+/dAY9wXzz5UA6y/bAXUg2QRU8L8F396K/RQyfQfM518DNlbPA1pDLwBzg7EA5niE/
lpc_rms=-26.61
offset=3770
pitch_keycenter=a#4
sample=Clarinet_invertedmordent_wholetone_PP_A#4.opus
tune=+6
</region>

<region>
hikey=a#5
hivel=127
lokey=a5
lovel=1
lpc=LWm5QphmUMNZlhRDLgQJwkJRPEJ6ImXC2lOeQFvfbkEoZ45Ao6UEwRdapUBbPjQ/d1HLvyxdJT7LuIlAqXu3PdNYZMA+XYTABhv0QOSnE0Gem5bAR1cEQUq/EsL3wdVB
lpc_rms=-20.71
pitch_keycenter=a#5
sample=Clarinet_invertedmordent_wholetone_PP_A#5.opus
tune=+23
</region>

<region>
hikey=c4
hivel=127
lokey=b3
lovel=1
lpc=qWCOQppQA8PisEVCxJC4wBUTtkEPOB5Aj71cP3fZsMC1Om4/WY6MwNeqUcCQGTxALMRdwB5XN8D+VJ5A52y2vdxkorzt1FRAlax8QP81BsCEzhvA0zsFv86t+sBjHe9A
lpc_rms=-32.79
pitch_keycenter=c4
sample=Clarinet_invertedmordent_wholetone_PP_C4.opus
</region>

<region>
hikey=c5
hivel=127
lokey=b4
lovel=1
lpc=XkdYQs45CcNbRORC95jWwYZ/REBGT0nB98okQfBFFcHJ8wpBnX1HwKyzHkD95/S/czbvv7vsMMBLoQdA4qOkQNI6q8AntuNA7ymwwERZaT+R/AlAwLedPhRvCMEc5NdA
lpc_rms=-31.10
offset=410
pitch_keycenter=c5
sample=Clarinet_invertedmordent_wholetone_PP_C5.opus
tune=+6
</region>

<region>
hikey=c6
hivel=127
lokey=b5
lovel=1
lpc=JbfBQjs6EsM/+Y9CQMqywUmg20E7im/AHjUZwXs2L8BNNmtBXtoTwCrgD0HQhkbB34ebP5aPXEG4/pG/moqpQLGzT8FvZstAPaf0QMHwPkHNLh3BwtoQwXMfxsFon/BB
lpc_rms=-21.08
pitch_keycenter=c6
sample=Clarinet_invertedmordent_wholetone_PP_C6.opus
tune=+16
</region>

<region>
hikey=d4
hivel=127
lokey=c#4
lovel=1
lpc=4QQZQ/uqisO87utC0FM0wn3/mkLk1r2+nAUKwsR1A0I8fpTB1f4WwfhOOEFN/KTBM1khQUZ1wD9CjVxACEyIv954b0FAPrTBNZiMQcVUHcAMIXPBFe8FQVHch8Ha7pJB
lpc_rms=-22.72
offset=479
pitch_keycenter=d4
sample=Clarinet_invertedmordent_wholetone_PP_D4.opus
tune=+1
</region>

<region>
hikey=d5
hivel=127
lokey=c#5
lovel=1
lpc=aQOQQhuoGsMTaudCGM5WwoSoHEJTdPrA4+eIPNjVUsG8KrE/rjvKQImEN8AsRiZBYETjwE36h8AYqZw/A68TQDwZ0z8/oL2/x2dNQJ8zCEBtIjNAJktFwABylsEswJBB
lpc_rms=-25.99
offset=412
pitch_keycenter=d5
sample=Clarinet_invertedmordent_wholetone_PP_D5.opus
tune=+12
</region>

<region>
hikey=C7
hivel=127
lokey=c#6
lovel=1
lpc=+BsKQ3YUn8OvJppDC7AZwzGiMkLF41/ATQKbQYNsFsIgfkNCPK38wdPf2kEQb3DBlIOvQKkxTUFKw3PBgPAVQpUBW8K5gGpCqwTHwZvkYUE0vajCwjr6QhItYMJbTwNB
lpc_rms=-15.05
offset=3158
pitch_keycenter=D6
sample=Clarinet_invertedmordent_wholetone_PP_D6.opus
tune=+24
</region>

<region>
hivel=127
key=e3
lovel=1
lpc=MRMeQojIlcJXGw5CiZILwWL/T0GVKZrAt1jGPSvVwj+kd2c/rPBXv6beUj+YQPy/PZPiP8K8H8BzKYi+zPJOP+I8fL/xEtA/vOYtPoMiBj+Q0am/RGQIwIn5RUBqWzO/
lpc_rms=-35.83
sample=Clarinet_invertedmordent_wholetone_PP_E3.opus
tune=+13
</region>

<region>
hikey=e4
hivel=127
lokey=d#4
lovel=1
lpc=43rsQljWUMMRjYtC8yGDwHAFGEIN4QVABj7QQNMG3MDOxoXBBzRywDNBsT9V5QVBwFEDwFvYCsEy7cq+fWwGQe8M40B7p2nAnTPxQAHy4sDWIk7A99i+P+9ewcHOy8BB
lpc_rms=-25.75
offset=99
pitch_keycenter=e4
sample=Clarinet_invertedmordent_wholetone_PP_E4.opus
tune=+10
</region>

<region>
hikey=e5
hivel=127
lokey=d#5
lovel=1
lpc=AKTtQhJGiMNQWGlDwZ+rwvXIZUC+AVhBe77oQX2pQMJktTxBakSaQGOZfkHbjaPAdsvdwcAXt0GcFFU/jmpCQJqVpcBW111BP14LwUjHgcG2PqhBDsDOPy42oMFAiJFB
lpc_rms=-23.07
offset=1308
pitch_keycenter=e5
sample=Clarinet_invertedmordent_wholetone_PP_E5.opus
tune=+20
</region>

<region>
hikey=f#3
hivel=127
lokey=f3
lovel=1
lpc=gGcVQmI3hcLKQedBAPvuwJ4lJ0F+Nuy/xI2bP7nhLMAiOn1Af+Wrv+xrvr9KY8u/6ycZQN4X+L9SsC2/r/L7vphiTkB1jwJA77KTv0ruR8DXWwy/+hkzvkfbeL+X8T1A
lpc_rms=-36.34
offset=788
pitch_keycenter=f#3
sample=Clarinet_invertedmordent_wholetone_PP_F#3.opus
tune=-7
</region>

<region>
hikey=f#4
hivel=127
lokey=f4
lovel=1
lpc=U8q0Qr6ZGcN5SV9C3C6JwAUZFkEwJzlBbzWOwK0hhEBpfIy+n3oFwW76/D+FfSa/LDx4QOBZQsGma/k/7mrTQBb8QL9l3R9ARSTtQGAjTcGQYGJAjGyHQAAyVcGzCDFB
lpc_rms=-27.98
offset=286
pitch_keycenter=f#4
sample=Clarinet_invertedmordent_wholetone_PP_F#4.opus
</region>

<region>
hikey=f#5
hivel=127
lokey=f5
lovel=1
lpc=YfEuQqZmosIuQyhCdXxgwfs/rUFRHlA/CgYRwdbJCMFuM3xBFgsWwYkJuj8sUSc/yICdPwBhF8Dx8IRAndTRPWmBvT85K7PAgnDQQIbz+sAdvwVBxOWPwDAsMUAZHzO+
lpc_rms=-30.46
offset=14357
pitch_keycenter=f#5
sample=Clarinet_invertedmordent_wholetone_PP_F#5.opus
tune=+19
</region>

<region>
hikey=g#3
hivel=127
lokey=g3
lovel=1
lpc=5mGpQuJ7IcNK+7BCJtAHwnxqokG9xgNBJ+aFwGKsmcA9TY9BcRxCwSK7EMHQ2SRBQg6qP2B/LsE5esA/yyf4v0xzk0DsMBhBHD2zwF0ODMFF5n1AbLd4P8MGAECU9bS+
lpc_rms=-29.56
offset=428
pitch_keycenter=g#3
sample=Clarinet_invertedmordent_wholetone_PP_G#3.opus
tune=-4
</region>

<region>
hikey=g#4
hivel=127
lokey=g4
lovel=1
lpc=NEfcQlpSWcMSsNtCZm3bwHaYJEJAQ/bB5nf+wO1eoMDtPhtBdGWGQBc1mb+hVKy/vOrKviQJV7xC7y7BW9HnQOE400AXham+TxkyQP4pOsE8cC4+w2iFQFT1A0AgnfQ/
lpc_rms=-26.44
pitch_keycenter=g#4
sample=Clarinet_invertedmordent_wholetone_PP_G#4.opus
tune=+6
</region>

<region>
hikey=g#5
hivel=127
lokey=g5
lovel=1
lpc=+oI6Q4zwrMOeMT1DBhYlwtdkkkI0DDPCmOVGQZ2TY8FKwBNBdsZ3wHmj+b+qwhzABJcwQEWOqEGd+5tBaGGiwWZSFsKsE/hAoWMeQhZ0s8BUmElBq5VAwZP8UcHwGQNB
lpc_rms=-16.64
offset=530
pitch_keycenter=g#5
sample=Clarinet_invertedmordent_wholetone_PP_G#5.opus
tune=+21
</region>
</group>

<group>
amp_veltrack=0
ampeg_decay=20
ampeg_sustain=0
group_label=Group_46-90
lpc_hicc1=84
lpc_locc1=43

<region>
hikey=a#3
hivel=127
lokey=a3
lovel=1
lpc=MMI3QvKD4sJXv6JC0aqJwXEsn0Fr1+rArWtTwfgPnMD37AZBEjjvP0f1NMARvwFACSktvgM1jL4LJws/ji32P0ZglsAoRjNAGLedP9r/78DeTalAxTy/QLRY/8Cf2RBA
lpc_rms=-28.46
offset=206
pitch_keycenter=a#3
sample=Clarinet_invertedmordent_wholetone_MF_A#3.opus
tune=+6
</region>

<region>
hikey=a#4
hivel=127
lokey=a4
lovel=1
lpc=BblqQvRaEsPph9ZCiKG4P6fBhMCs9+7BcQY7QcqBMsGUyNVBJn9GwWLiukBORPzAnsPdwOFQt0AqxmVAmUXLQL96qcDv+P7AIJYaQXh5y8A2y/4/e74IQV5vVMHYWtdA
lpc_rms=-26.77
pitch_keycenter=a#4
sample=Clarinet_invertedmordent_wholetone_MF_A#4.opus
tune=+7
</region>

<region>
hikey=a#5
hivel=127
lokey=a5
lovel=1
lpc=mtuLQpRpIcPNyQRDnbsrwt/4kEFrYvbA0RQowL6QesHq29FBnqH7wDSOZEAA6I8/g5SGwTU8tUEgXkPBojh0QanxhMG4rLVAqenWP5WvWb8245ZBk6WMwcuiHcE4N01B
lpc_rms=-21.19
pitch_keycenter=a#5
sample=Clarinet_invertedmordent_wholetone_MF_A#5.opus
tune=+30
</region>

<region>
hikey=c4
hivel=127
lokey=b3
lovel=1
lpc=OJxSQmjZAsPXVslCkcHUwXJIjkHkAvrAJrP6wE0YrT9Z1KvAw7jyQN/OEr4ZCCy+UPO8wIhl8kDm85vAWyimQCDJZ8ALpyZAXqiDwOoR8z5TrbQ/c7iEP3mMwb7VK52+
lpc_rms=-28.43
offset=236
pitch_keycenter=c4
sample=Clarinet_invertedmordent_wholetone_MF_C4.opus
tune=+4
</region>

<region>
hikey=c5
hivel=127
lokey=b4
lovel=1
lpc=wA37Qa/QusLjVNpCZih5wvPh0EFJvqXBmFiNQaiynMFT8vZB2X3gwXDYs0D6he5AiGIFP4/228DpMTHAkN9DQcOADsGi2XZAymArwHjtykAtvyPB5x3UP8Q2D0GXIKrA
lpc_rms=-27.35
offset=689
pitch_keycenter=c5
sample=Clarinet_invertedmordent_wholetone_MF_C5.opus
tune=+11
</region>

<region>
hikey=c6
hivel=127
lokey=b5
lovel=1
lpc=kBNKQp/tx8KabZlCpbbSwU8y/kBQ8LE/AeqpwLE9I0D0hjZB25VAwd75WUDw2ytBa7SmwBAOy8Cy1zJBDmHIP5z+v8BUW5dA9h9kQBNUn8DxcQ9BAU5QwCwxgMHNlYJB
lpc_rms=-22.70
offset=6478
pitch_keycenter=c6
sample=Clarinet_invertedmordent_wholetone_MF_C6.opus
tune=+14
</region>

<region>
hikey=d4
hivel=127
lokey=c#4
lovel=1
lpc=TKXMQnachcObN2pDAFKcwupFFkIZsfvBkcFiwRw+tEGgniTApd6dwGktMUFlAGPBC+KwPiqU4T65rEU/iknlQIkckEA8LuU/XmaQwVpCUsA1oBVBotx8QfTWhsE5sIFA
lpc_rms=-19.78
offset=322
pitch_keycenter=d4
sample=Clarinet_invertedmordent_wholetone_MF_D4.opus
tune=+14
</region>

<region>
hikey=d5
hivel=127
lokey=c#5
lovel=1
lpc=fC5qQlrUGcOMFBdD4CFowp7pyUAbY4HBR0jvQcNV2sHbtphB6pEWwRY4KUE6KE/A3i2xwZwlrkFHn5fAEyEsQQoshsG4RDxBcpBHwFeEMMEgfaNBM+M6Pwge0cEI3odB
lpc_rms=-24.70
offset=559
pitch_keycenter=d5
sample=Clarinet_invertedmordent_wholetone_MF_D5.opus
tune=+8
</region>

<region>
hikey=C7
hivel=127
lokey=c#6
lovel=1
lpc=ex5oQgbMu8IYKCJCpFRJQSEy6MBV+ApAV3mJPz8jmj8MXLhApcKIPsdky789gVZAKnboP2+nuz6+XkM+7itAQQ/mYcEpzlxBwdVIweJGuUHduwjCQslhwKbFS0ILF+HB
lpc_rms=-22.85
pitch_keycenter=D6
sample=Clarinet_invertedmordent_wholetone_MF_D6.opus
tune=+17
</region>

<region>
hivel=127
key=e3
lovel=1
lpc=wTxQQv0OCsNmsuRC7KbBwdCKbEGCwgLCn5SGQSTIVsEuVLRBwuFRwStRUkBVuq3AW9kXQAxXScAiCftAvudGwCoQL0CEDxjARv+AwAIejkDcCrW/vCNzwMct5UA+wUbA
lpc_rms=-24.89
offset=643
sample=Clarinet_invertedmordent_wholetone_MF_E3.opus
tune=+19
</region>

<region>
hikey=e4
hivel=127
lokey=d#4
lovel=1
lpc=z7qdQnzoO8Pf3P1C+rUtwQ++FkGu3QPALgTUwT0mFUHWS98/ovf2P4U0E0A4HpJAlH8XwWPjCMEkCMhAFpFIQRHztMATd54/3itgwLcPhcAwOstAIYcUQG6gWMFTkBtB
lpc_rms=-26.33
offset=99
pitch_keycenter=e4
sample=Clarinet_invertedmordent_wholetone_MF_E4.opus
tune=+11
</region>

<region>
hikey=e5
hivel=127
lokey=d#5
lovel=1
lpc=YG6FQiI7KMO5+idDVeitwhFD9UEbKUrBdFinQfzqosHzCPVAOpMpwXcGXEGW7A9BQoPWwRiidkHNJYPAWHP8QCDf1b9mlZLAY3/sQHqkjsC8MI3ARAgDQAz5UUBZJaU/
lpc_rms=-26.29
pitch_keycenter=e5
sample=Clarinet_invertedmordent_wholetone_MF_E5.opus
tune=+19
</region>

<region>
hikey=f#3
hivel=127
lokey=f3
lovel=1
lpc=f7UoQnya48KDZMNCdfqYwRaYmUABLqLBi3fPP9XsoUChdDNBBrMLwYM+bT0rK0rA73ITQMOcgr/VKEC/8K6SQPgrhT/P3TzAorDQvx79WsAMNNxA2iMAPi8xocAh7SNA
lpc_rms=-28.39
offset=540
pitch_keycenter=f#3
sample=Clarinet_invertedmordent_wholetone_MF_F#3.opus
tune=+6
</region>

<region>
hikey=f#4
hivel=127
lokey=f4
lovel=1
lpc=SCdKQqbN4sIo85VCOhSCwdXRmEHFByPBzbK5wOGsn8ArrjNBPKaowKMopkBLOL7Aiq2uwHDqDkGT+eXAlhY2QR934MAgeblAFI95vm+XWcGg4+xAgV82QHbM7L/JIaM/
lpc_rms=-29.53
pitch_keycenter=f#4
sample=Clarinet_invertedmordent_wholetone_MF_F#4.opus
tune=-3
</region>

<region>
hikey=f#5
hivel=127
lokey=f5
lovel=1
lpc=G22fQsqJNMMAJA5D8CRFwtMbC0LmIsrBBmVbQQpimsFKVkBBj34ZwRk6S0EsvflA57MAwRDq7MDw4ic/bJB9QSiqMMFVnZBA3JQ/wLnPuL8hhHVAYyaoQIV53cBJ7YtA
lpc_rms=-23.22
pitch_keycenter=f#5
sample=Clarinet_invertedmordent_wholetone_MF_F#5.opus
tune=+22
</region>

<region>
hikey=g#3
hivel=127
lokey=g3
lovel=1
lpc=1ZOJQkZGOsNMxCRDgA8pwmr6LUH5ObTB7YelwFH5EkEjnlhBPcqiwBdqGcF9uvg/+hzGv8tZ4z9n1Ec/boGtQIOpDMD6qOO/3NuFwEbtzz+12kZAXwS2QNTSYMG3x/FA
lpc_rms=-26.84
pitch_keycenter=g#3
sample=Clarinet_invertedmordent_wholetone_MF_G#3.opus
tune=+7
</region>

<region>
hikey=g#4
hivel=127
lokey=g4
lovel=1
lpc=8UiUQnV0LsOhYQlDIYyAwgbRiEL3Dc/BC/YHwkQybEGigxfBawnmQYgnDMFCGEHA8eeZv05Wu8DywzDAU0sOQbgroL1FveJAOaxewFowPME+A+0/9sFAQNNU1EA+QkfA
lpc_rms=-28.00
pitch_keycenter=g#4
sample=Clarinet_invertedmordent_wholetone_MF_G#4.opus
tune=+11
</region>

<region>
hikey=g#5
hivel=127
lokey=g5
lovel=1
lpc=OvErQ3Ran8Nk3yRDTu6NwRwPOEIX6MDB33iQwAdd68C3bZJBLFpgwZeASL9PZxTAVVYzQcjRyUD9KzFB3Dg7wR0MZcFF1hrA+hq3QZXpOD+dCrdAUgrNwP+Gi8BUBOU+
lpc_rms=-16.78
offset=4
pitch_keycenter=g#5
sample=Clarinet_invertedmordent_wholetone_MF_G#5.opus
tune=+25
</region>
</group>

<group>
amp_veltrack=0
ampeg_decay=20
ampeg_sustain=0
group_label=Group_91-127
lpc_hicc1=127
lpc_locc1=85

<region>
hikey=a#3
hivel=127
lokey=a3
lovel=1
lpc=eSaVQeYwRMKE5D5CBgCgwYXym0BLw1DAA3Cev2JOmECUpDS/NT+Fv28bPsBA6sxAK02MwAzJGMBg0QhA+CI2QDPNeb+BmsO/j0/Evj50bD+ix/q+oRULQDZVQsCh8Kg/
lpc_rms=-21.96
offset=307
pitch_keycenter=a#3
sample=Clarinet_invertedmordent_wholetone_FF_A#3.opus
tune=+9
</region>

<region>
hikey=a#4
hivel=127
lokey=a4
lovel=1
lpc=gAqEQT8sIcLTDg5C3+r1wH65or+vyBfBMHA+QT4IAcEIRBNBZyDtwKiDKb1ZwEFAM2Luvpee3LxwQrS/3coaP+7fob5XxJg/Dn8eP1UkNMDjCwk/TL6PQE1wp8B6lidA
lpc_rms=-22.58
offset=26
pitch_keycenter=a#4
sample=Clarinet_invertedmordent_wholetone_FF_A#4.opus
tune=+2
</region>

<region>
hikey=a#5
hivel=127
lokey=a5
lovel=1
lpc=bxDTQae4ZsI1GkFCW/MAwYwZSMFaDvRAYi7QQBUoYMGygFRBRqo8wEjel8CteKBAfhVdvu2HND9QfE3Ag4mbQPtNCb903fS+hPONv6EqaL8Kaf9A6FXlwNKnXEBrpLW/
lpc_rms=-13.05
pitch_keycenter=a#5
sample=Clarinet_invertedmordent_wholetone_FF_A#5.opus
tune=+22
</region>

<region>
hikey=c4
hivel=127
lokey=b3
lovel=1
lpc=DU6KQb8rNcKcNzZCrrSwwVoe50BZSvK/JDkjwHyKEUAt3xlAHp0hwOXNhb+BEtY/diU4v5vYur9TWCBAD+iGv5zhCMARoK9ABhKUwMy/xD/Z8qG/UyJGQFq4esDjHv8/
lpc_rms=-22.43
offset=86
pitch_keycenter=c4
sample=Clarinet_invertedmordent_wholetone_FF_C4.opus
tune=+6
</region>

<region>
hikey=c5
hivel=127
lokey=b4
lovel=1
lpc=O3tIQYpw8MHGAAJChQilwW+mHUEGMq/AarKsQARTCMETiDNBTxfLwMTMAcC5D2VAgL3BPxzyrsBbToFAERScvr/IEsDXuNg/deyRP1eio78QHRo/oX+rvusnpT6klNo+
lpc_rms=-19.81
pitch_keycenter=c5
sample=Clarinet_invertedmordent_wholetone_FF_C5.opus
tune=+1
</region>

<region>
hikey=c6
hivel=127
lokey=b5
lovel=1
lpc=YZZnQaIjysEUZZ9B4om0wPspub+fJz1AD86wP7XimcDjPhFBd+7fwDA+GUC57D1ABpaAv703jb9GjfY/5Ut/QEaE+sDGpwhBrH9DwBF2L7/7ZoZA3n6Sv0pkt8DO8JJA
lpc_rms=-13.67
offset=7000
pitch_keycenter=c6
sample=Clarinet_invertedmordent_wholetone_FF_C6.opus
tune=+12
</region>

<region>
hikey=d4
hivel=127
lokey=c#4
lovel=1
lpc=oEIbQjh1sMI/5I1Ci2G+wS7AsUA5c6NA9qmNwU0VHkHk14NAduCivdscpsB/jTk9j9izPwtjw8DiwxdB8DviwEkOPj9TOUdAWCSqQMglDsH6/ly/EaHLQE5Me8BiARFA
lpc_rms=-14.07
offset=177
pitch_keycenter=d4
sample=Clarinet_invertedmordent_wholetone_FF_D4.opus
tune=+16
</region>

<region>
hikey=d5
hivel=127
lokey=c#5
lovel=1
lpc=14svQZuku8EEhLZBKFxOwQCZAUFWUBPBSSUMQTjcwsAjn+NAkYQGwSyOp0CdYtG/7Sy6P1Mt379x1/4+Z7UKwN8lsEDON07ACm10P7MzeMBwiQ1BVqbwwM8nWkAPi2u+
lpc_rms=-21.25
offset=22
pitch_keycenter=d5
sample=Clarinet_invertedmordent_wholetone_FF_D5.opus
tune=+2
</region>

<region>
hikey=C7
hivel=127
lokey=c#6
lovel=1
lpc=LjHwQXIMTMLcuxZCuV9SwUCIykC/76jA+bPBQLKOkT/Yl4hAyT/dwEev6ECBFRc+d94ZQFdSvT0pQfe/wQ3dQM40Tr3buIc/O1S4wGozfEF038XBC3t9QRYC5T9hhYu/
lpc_rms=-9.79
pitch_keycenter=D6
sample=Clarinet_invertedmordent_wholetone_FF_D6.opus
tune=+12
</region>

<region>
hivel=127
key=e3
lovel=1
lpc=DbKdQcjIRcIgSCtCwDFewUHgv0D7AvPAhH/yvulChD+y/RNB3h2nwA2SqMBUdPE/u2BBQGye0L/IliQ/Ld3dP/uOicAAwOg/naZVP4rdeD/KQvS/Fq+HP5y+s79SzIQ/
lpc_rms=-18.61
offset=889
sample=Clarinet_invertedmordent_wholetone_FF_E3.opus
tune=+18
</region>

<region>
hikey=e4
hivel=127
lokey=d#4
lovel=1
lpc=TNAHQm5ds8I2vKRCjZK9wfO438B+CbdAHVYawJDtUUBh34DA5uBFP1sRE0EVZkfBZ9EMQDJr378FtAhBzaq+wKsGfT+0Trc/9/REPjmiIMBBvAw/0aCyQEdOJ8Hfc7tA
lpc_rms=-20.05
pitch_keycenter=e4
sample=Clarinet_invertedmordent_wholetone_FF_E4.opus
</region>

<region>
hikey=e5
hivel=127
lokey=d#5
lovel=1
lpc=gbqPQRBOKsK50zhCQkr6wWwtmEHSa4fBo/qaQX/tnMHavaJBELRwwVlMGEEhsRrBbS43QRYRGMGv3SY/mlsTQVhSDsESHehA5mMMwRcLR0Fa0EzBNSA+QUTwQ8Etv+5A
lpc_rms=-16.25
pitch_keycenter=e5
sample=Clarinet_invertedmordent_wholetone_FF_E5.opus
tune=+11
</region>

<region>
hikey=f#3
hivel=127
lokey=f3
lovel=1
lpc=A0dpQbrnEMLxr/5BZowjwVaJHkDGooDAlvWAPlX7lT+VDDpAqPeRv60IKcDlVK89qTBYQKL4icBLCZw/+T9GQFTumb/eBiDAK/vAPz/GAr8hBu8/7EV3v7Jaw78pjI0/
lpc_rms=-24.37
offset=974
pitch_keycenter=f#3
sample=Clarinet_invertedmordent_wholetone_FF_F#3.opus
tune=+2
</region>

<region>
hikey=f#4
hivel=127
lokey=f4
lovel=1
lpc=EILfQRq3fcKQdz5C3jx5wVfYP0Hjou3APLTawCqe1UAU48I/ahqkPQe3WL7ZAWfA5K4qQPS0jsBZzhVAtSFnQHPTyD/XvqLAV/Q6wCCIhkDw+0hAIp3QP4XLRsGoBQNB
lpc_rms=-21.00
pitch_keycenter=f#4
sample=Clarinet_invertedmordent_wholetone_FF_F#4.opus
tune=+2
</region>

<region>
hikey=f#5
hivel=127
lokey=f5
lovel=1
lpc=oh/TQV+Tf8K38IpC27wqwlynlEHLBePA1EjlQFE2RsFVBGFBtzy0wOYQjT/OFps+ilG1PjgIJcDruoRA3XScv+3/gkChMg7BeT3qQK8kQb8Nd9C/hxjwQDvkM8GyGeFA
lpc_rms=-16.89
offset=9461
pitch_keycenter=f#5
sample=Clarinet_invertedmordent_wholetone_FF_F#5.opus
tune=+9
</region>

<region>
hikey=g#3
hivel=127
lokey=g3
lovel=1
lpc=YW/iQatJncJbdKJCSFUMwoTo+ECb7CfBfUwzQZFA8cBFXwRBt+G8wDT31z6CJzhAF1AswBxPIL4FuRHAt3efP4wYhkAl9IE/MmCOwDCmkMDHyJpAG5YaQeQmfMFgq9dA
lpc_rms=-22.74
offset=954
pitch_keycenter=g#3
sample=Clarinet_invertedmordent_wholetone_FF_G#3.opus
tune=-1
</region>

<region>
hikey=g#4
hivel=127
lokey=g4
lovel=1
lpc=BmYSQpDupcIb1X9CNMmOwch8EkFHcjjBuRwbQBDpHj92oENARXUCwI35OcBDQ+hApmt9wFlVbcCqRiu/wBvYQMHchb96cBy//WpSwKCzA7+S5rRALrGIv8/g68CMc9JA
lpc_rms=-22.37
pitch_keycenter=g#4
sample=Clarinet_invertedmordent_wholetone_FF_G#4.opus
tune=+17
</region>

<region>
hikey=g#5
hivel=127
lokey=g5
lovel=1
lpc=uBeAQpk/+sIxic5C4QQGwo6+Q0GeQWPBSSXJQcmc/MEYUuVB1hUXwFOGi8AivCFAWi0ZPj5QQEB0KSxBT6otwc7qKD00IxFBdBLdQNQMFcEwgxJBBt5zwSq1yEHQI+XA
lpc_rms=-10.67
pitch_keycenter=g#5
sample=Clarinet_invertedmordent_wholetone_FF_G#5.opus
tune=+9
</region>
</group>

<group>
amp_veltrack=0
ampeg_attack=2
ampeg_release=0.35
group_label=PP
lpc_hicc1=42
lpc_locc1=0
volume=-3

<region>
hivel=127
key=A#3
loop_end=251653
loop_mode=loop_continuous
loop_start=55844
loop_xfade=23726
lovel=0
lpc=Jiy0QnyEO8NLbgJDi1pJws1RZEEsnQ4/BwJHwWtFZ0ESfqZBYK6Gwfw8KsHqs6BBn1XvwFfNi8G6uC5BDP0UQdEZ2sD1eD/A+Nt3QDG9wMADm5pAF1K5QAN8l8G9VU1B
lpc_rms=-28.95
sample=Clarinet_sustain_PP_A#3.opus
tune=+1
</region>

<region>
hivel=127
key=A#4
loop_end=272011
loop_mode=loop_continuous
loop_start=60362
loop_xfade=25646
lovel=0
lpc=xMBNQxuDBcRx9fRD264sw95W20H2xPvBMjhcQRWvOEFQSCFCHlCiwgkVjkESYBZCIIvkwYa+tsEvizxCTldHQbN9GsLXgpbA1Sv+QekPWsFuQAjAL+jcwZTzJ0J1R0XB
lpc_rms=-18.67
sample=Clarinet_sustain_PP_A#4.opus
tune=+3
</region>

<region>
hivel=127
key=A#5
loop_end=258109
loop_mode=loop_continuous
loop_start=57277
loop_xfade=24335
lovel=0
lpc=K/kXQ81eisNpr1pDoH9Cwo2oCMJp6KVBZVPQQKh6Zr8EegpBEja7wcxU40Fo0K2+5z9iwZ4MvL4Y0OJBsZZwwaH8CMGXFjdBwZpeQawcPcFOBgzBgy47QRZrDkJ2F0vC
lpc_rms=-22.70
sample=Clarinet_sustain_PP_A#5.opus
tune=+2
</region>

<region>
hivel=127
key=A3
loop_end=273518
loop_mode=loop_continuous
loop_start=60696
loop_xfade=25788
lovel=0
lpc=cRC2Qt3YUMOmZR1DJ6NYwn2bfUElvJG/s+rCwMUwY0ApSsRB7Ih1wSy4n8E4Ro9B1956v1uskcECDFRBhRfMQEEfosD+8qs/2ZP1QJ9tDcGJOQY+hPEBQYxty8Ec+4pB
lpc_rms=-27.17
sample=Clarinet_sustain_PP_A3.opus
tune=+2
</region>

<region>
hivel=127
key=A4
loop_end=269470
loop_mode=loop_continuous
loop_start=59798
loop_xfade=25406
lovel=0
lpc=hxV/Q6XRHsTkFQJEkxUYwwtEK0EH/9O+qSY0QljQEsJhRwNCcz+IwsznEkBKjxFCCdmUwUnE58Ban6xBCMMmQlZ6GcIUmbLBvpqcQf6CfcBTYK3AoOS5QBArnL5SPUVA
lpc_rms=-17.38
sample=Clarinet_sustain_PP_A4.opus
tune=+2
</region>

<region>
hivel=127
key=A5
loop_end=251182
loop_mode=loop_continuous
loop_start=55740
loop_xfade=23682
lovel=0
lpc=Bo4DQ0UugsOHXFFDcKF9wnJ7f0AjFg5BKbC5wZ/fvEGxJWpBDy7pwfO6A0GBkM9BBcS/wSYah0AOfHFBVzMQv0fIh8FdLqNBpurBPdlihcDtjBjAcP+5vxBuHEJCYQvC
lpc_rms=-24.34
sample=Clarinet_sustain_PP_A5.opus
tune=+3
</region>

<region>
hivel=127
key=B3
loop_end=250612
loop_mode=loop_continuous
loop_start=55613
loop_xfade=23628
lovel=0
lpc=4VuaQpcAKsPzWQNDRvNXwhqQPED3MXVB6/IZwQQpU0G99QtAvQumv5cvusDBRpxAeOM9wXAGT7+Hsw1BPkNywHZAE8BViLdAUB5YQKJb2sAIY20+KN4ZQQVolsGOIy5B
lpc_rms=-28.84
sample=Clarinet_sustain_PP_B3.opus
tune=+1
</region>

<region>
hivel=127
key=B4
loop_end=268602
loop_mode=loop_continuous
loop_start=59605
loop_xfade=25324
lovel=0
lpc=FwuLQ28IH8RqH+tD9bX8wgCAaUJjjB/CDpaTv8KZKMEjZ4lC3u6Dwv6JqcGaYSZCLoQbwadv88F3BjBC0PXmQfrWNsJ53EnBvMMOQv4CgcGZqxXBzqzCQMRzkEAndV9A
lpc_rms=-18.28
sample=Clarinet_sustain_PP_B4.opus
tune=+2
</region>

<region>
hivel=127
key=B5
loop_end=272268
loop_mode=loop_continuous
loop_start=60419
loop_xfade=25670
lovel=0
lpc=rox/QzevBcSAFwpE522pw96lCkMVa+BBz1SAwmdF5cE+AR1DsSMMw6kLikKoHOtAcc4LwiLpRkLTSwjCC8GPQh89ksKl/MNB1qYFQiDER0HyrXbC8D3rQh8/BMONAkdC
lpc_rms=-14.17
sample=Clarinet_sustain_PP_B5.opus
tune=+3
</region>

<region>
hivel=127
key=C#4
loop_end=251765
loop_mode=loop_continuous
loop_start=55869
loop_xfade=23737
lovel=0
lpc=ojrHQsIKSMNCKg9Dip2VwvVF7kE+oIxBg6awwZzKY0An/pFBTfAewZpmzb+ocvlAaSSVwTdaPsERaIhBnG+vQIsZv8CXFrlAWWc4Pz6V88ClId5AVrQjQZsCscHXoypB
lpc_rms=-27.55
sample=Clarinet_sustain_PP_C#4.opus
tune=+2
</region>

<region>
hivel=127
key=C#5
loop_end=256753
loop_mode=loop_continuous
loop_start=56976
loop_xfade=24207
lovel=0
lpc=tQeqQfENVcKZtT9Cl2yAwTNRjD/xg9m/b00IQK5sIcCb+qxA1Ud5wEQluT8Jedg9XZuBwAraCUCoy7E/vfOqPxrfBMCYJ24+zvL1P5GpR8CFIg9Asas4QAhu+8CxtZdA
lpc_rms=-38.96
sample=Clarinet_sustain_PP_C#5.opus
tune=+5
</region>

<region>
hikey=B6
hivel=127
lokey=C#6
loop_end=273584
loop_mode=loop_continuous
loop_start=60711
loop_xfade=25794
lovel=0
lpc=AoBXQv9OpcLbqItCYgzEwSp32UBqnqa/UmhRQTIdR8EDjIJBKmjawD4IK0GUTxvB8kqXQftAV8FMj0RB00RDv4pP4kCDYirBhVa2QbxWi8Ff4ZBB4soAwiPZr0HYYrTA
lpc_rms=-26.49
pitch_keycenter=C#6
sample=Clarinet_sustain_PP_C#6.opus
tune=+1
</region>

<region>
hivel=127
key=C4
loop_end=256562
loop_mode=loop_continuous
loop_start=56934
loop_xfade=24189
lovel=0
lpc=zZ++QgPoWcP/tiJD+iOAwnQw5EHSVJdAnMWBwTFGvkBfAeJBpjjAwdMmvcAoJrNA4eL3wJXoYcEj9oVBrFSWQJAMQcBM36tA5O8wQKqAt8DTXaC/Qel8QZqKGMLcnbNB
lpc_rms=-27.29
sample=Clarinet_sustain_PP_C4.opus
tune=+1
</region>

<region>
hivel=127
key=C5
loop_end=265828
loop_mode=loop_continuous
loop_start=58990
loop_xfade=25063
lovel=0
lpc=wzfgQjZib8MToj5DklGcwuYlAEIAdNvAVuOBwc5zVD//ZQ5C1m33wfwEicB3kJ1BIdV1wHyvZ8HTx/RALjA3QWsUDME9jJLA2fyoQKBAoD/K9CFA0sH+P1lFAMFKydpA
lpc_rms=-25.87
sample=Clarinet_sustain_PP_C5.opus
tune=+2
</region>

<region>
hivel=127
key=C6
loop_end=264274
loop_mode=loop_continuous
loop_start=58645
loop_xfade=24916
lovel=0
lpc=hTb1QlOTZsNrtk5Dq3K2wvfx3kHAO4pBt9KywUpm0UEZjeRBU9dMwpB6b0LJPsLB1RuXQVr71kBjYhvBGkMmQod7J8LU2SVC9u4oQAki68C0BHBBevURQUspPcKSbC9C
lpc_rms=-21.65
sample=Clarinet_sustain_PP_C6.opus
</region>

<region>
hivel=127
key=D#4
loop_end=260845
loop_mode=loop_continuous
loop_start=57884
loop_xfade=24593
lovel=0
lpc=5RMBQhHOdsJlkxtCInAywQm/CL1rMiNA/EuNwPmcqUAMRAJAA9oPwBXPB7+qenE/8QPJv81AmsC6w4xAgFo8QBYydMCicDc/sLlIQKR4R8CGuu2/2tjcQE+17MCqxmhA
lpc_rms=-37.85
sample=Clarinet_sustain_PP_D#4.opus
tune=-1
</region>

<region>
hivel=127
key=D#5
loop_end=267679
loop_mode=loop_continuous
loop_start=59400
loop_xfade=25237
lovel=0
lpc=kuMMQ07UnsNMIoRDYgWtwqSjhUEn6OjBssHUQc9cYkBtVwpBPlTfwW6X00Hlv8LB+ALXQXjI6sGnZv5AiB3KQSVnj8H0thhBxNFCQIrwjcE1AYhB+RXHQerSkcIVpEhC
lpc_rms=-21.90
sample=Clarinet_sustain_PP_D#5.opus
tune=+2
</region>

<region>
hivel=127
key=D4
loop_end=264656
loop_mode=loop_continuous
loop_start=58730
loop_xfade=24952
lovel=0
lpc=p7idQrbhJsNljcxC6RLIwRH0hEHtAyrAncjrvzOMZUBAS89ArOkXwXKqyMBYzqtAxn9mwP3DycCNeudAQEzQQKeWi7/tmQvAJm5BQHd9H8DEOuK/fz64QNxAncEiWGxB
lpc_rms=-30.08
sample=Clarinet_sustain_PP_D4.opus
tune=+1
</region>

<region>
hivel=127
key=D5
loop_end=272053
loop_mode=loop_continuous
loop_start=60371
loop_xfade=25650
lovel=0
lpc=U7XuQQYIR8JEBNRBy0eXwNsQTECCZHrAL1S1vgSauT9twcVAIEuOwBI3I8B+4zRAj2KZPE/mNcAZ0xVAf6VnQHpDBMCjh82/VDX5P6x6Yz4LINO+WIdLvnab/74RpB1A
lpc_rms=-41.18
sample=Clarinet_sustain_PP_D5.opus
tune=+3
</region>

<region>
hikey=C7
hivel=127
lokey=D6
loop_end=250203
loop_mode=loop_continuous
loop_start=55522
loop_xfade=23590
lovel=0
lpc=/CAoQ9wpk8O/MmpDDmK/whdtwUE8boJBcuaTwW99oUC2Wb1BCjuswR4qxkB/jrJBpiDuwZoKs0H/zp0/PbATQck/tsE7NdBBoUsDQCEJBsJzVevBflQnQqR92kCPMo7B
lpc_rms=-21.90
pitch_keycenter=D6
sample=Clarinet_sustain_PP_D6.opus
tune=+1
</region>

<region>
hivel=127
key=E3
loop_end=265873
loop_mode=loop_continuous
loop_start=59000
loop_xfade=25067
lovel=0
lpc=scpwQikP5MK8ojtCZwWfPvjqSUFGFunA+kDvPzKqSz/JsM9AOGazv0ivicCLTinA/4MDwAV2BcBCbGFA8c4AQCgOmr/Cesm//Ed/QGT2Er7FKADAAtUkvXwIj0CTW4TA
lpc_rms=-35.22
sample=Clarinet_sustain_PP_E3.opus
tune=+2
</region>

<region>
hivel=127
key=E4
loop_end=271082
loop_mode=loop_continuous
loop_start=60156
loop_xfade=25558
lovel=0
lpc=3MkVQyKsmcPA0jlD2SBFwkSmyUFPMG1ABB8JwVPlMkEl86FBvgK5wb5eH8F2qmG/8Ti7wP1gasHDXLdBe19oQRABLMDaEanAAZ8KQZeYfcEKeK6/gV91QRuIEcLPxd1B
lpc_rms=-24.95
sample=Clarinet_sustain_PP_E4.opus
tune=+2
</region>

<region>
hivel=127
key=E5
loop_end=279757
loop_mode=loop_continuous
loop_start=62081
loop_xfade=26376
lovel=0
lpc=uhZiQ2a22sNrxo1DNy6kwlHLIkIdrdnB+bzVQQ07AkAWJJNBROsGwuyktL8piRpBAWKNwAqTj79lalVBN1QEQZjAf7/LeipAe9iHQLpGrsGoliJAUwkTQQ3InUBQCAZB
lpc_rms=-20.67
offset=15846
sample=Clarinet_sustain_PP_E5.opus
tune=+1
</region>

<region>
hivel=127
key=F#3
loop_end=266577
loop_mode=loop_continuous
loop_start=59156
loop_xfade=25133
lovel=0
lpc=19lLQ4ruwMOVlkNDqyz6wZqgdEFZ1rzBlVqRQecN5kBKkaRB5f3NwNWzGsFxV5Y+4DOUwIafHsE2K/RAT2RPQWOA5b8JsjPBoOIRQUrswL+a/w7ACu4awaVh/cDWRoBB
lpc_rms=-23.74
sample=Clarinet_sustain_PP_F#3.opus
tune=+1
</region>

<region>
hivel=127
key=F#4
loop_end=267684
loop_mode=loop_continuous
loop_start=59402
loop_xfade=25238
lovel=0
lpc=L0v1QujEYMNOb+tCVzgFwgckCELuyrPAFScLwUHlk795zj1BO/sGPwyfMcHaKq7AjAavvuS/uMAic4lBgXc0P2xvrD7IBbXA4hGxQHYuLsBy9+/AJIlPQQsp3cGi4LxB
lpc_rms=-26.91
sample=Clarinet_sustain_PP_F#4.opus
tune=+1
</region>

<region>
hivel=127
key=F#5
loop_end=272878
loop_mode=loop_continuous
loop_start=60554
loop_xfade=25727
lovel=0
lpc=Or4xQ8hpmsPPVTFDjh4Kwv5DAEKDYQ/BL6qgwfsvhEF5PgtCBtIIwqlNW8BoO7xBOZGOwVbumL4rDc5BNTh9QdhbqsEmg82/ohi5QAT3UsBeWNhARpS6QPyy20DzYopA
lpc_rms=-24.20
sample=Clarinet_sustain_PP_F#5.opus
tune=+1
</region>

<region>
hivel=127
key=F3
loop_end=258837
loop_mode=loop_continuous
loop_start=57438
loop_xfade=24404
lovel=0
lpc=sK2YQt2SDMNaRIRCKtLzwAngKEEKdS3BSbueP4iq4UCZI9hARW5zwCuQk8A9ppW+yfOPwCA3lcAxIeVA5CZsQKsmC8Cl0VM+d3AcQLm8/D6+67e/6q4mwFVdQ8Ad5ZJA
lpc_rms=-31.86
sample=Clarinet_sustain_PP_F3.opus
</region>

<region>
hivel=127
key=F4
loop_end=263263
loop_mode=loop_continuous
loop_start=58421
loop_xfade=24821
lovel=0
lpc=zRMBQ8nlesMZjv9CfgS+wVDa/kGMXmbAbDMDwf2GO0CnAItBlZV3wTYlLMFqYYJAb3PHwNPfKMF2toRBPSc0QSaiAMDqUAXBrW7fQFMhEb+LxPvAnydrQMMBlsFrsJ5B
lpc_rms=-26.44
sample=Clarinet_sustain_PP_F4.opus
tune=+2
</region>

<region>
hivel=127
key=F5
loop_end=271798
loop_mode=loop_continuous
loop_start=60315
loop_xfade=25626
lovel=0
lpc=QtFgQ2yk58MkmrFDJnftwvJ2ckHtyHo/3Hn/QWFLKcBHtJo+SkEowmqOtkH6yLJB4KN3wd9SLsGVYaRBbL1JQdP1jUAdq5K+hCa5wTMm1cBD+IBBDV+CQeW858BosxRB
lpc_rms=-20.51
sample=Clarinet_sustain_PP_F5.opus
tune=+1
</region>

<region>
hivel=127
key=G#3
loop_end=261199
loop_mode=loop_continuous
loop_start=57962
loop_xfade=24626
lovel=0
lpc=QxE0Q7qwwMMdLlhDxoomwqsud0JYGz/BMK3kwU6uhsAsil5CplCAwSBMA8Ja1U7AGzUXwXU9bsGMggpC//61QcIXccF7qyDBkB9hQUxkdcCON9TA4c0MQdWQGcIw++ZB
lpc_rms=-23.80
sample=Clarinet_sustain_PP_G#3.opus
tune=+1
</region>

<region>
hivel=127
key=G#4
loop_end=270480
loop_mode=loop_continuous
loop_start=60022
loop_xfade=25501
lovel=0
lpc=zuWQQ60YAcRfpnZD3fQDwihRZEKeJe7B8E27wTucjEFx/yxCkaIqwX8pzsHnCD3BxEbHwEOGC8EpCxNBWheVQb5LYEDpeUS/jupAQW5pJcESIWLBr3QbQUL6DML+EjNC
lpc_rms=-20.85
sample=Clarinet_sustain_PP_G#4.opus
tune=+2
</region>

<region>
hivel=127
key=G#5
loop_end=253443
loop_mode=loop_continuous
loop_start=56241
loop_xfade=23895
lovel=0
lpc=rWiiQuSqScOpUUNDTFyYwklrkD/KBRjAnOFcQUQVDsExDWBBaM/fwczpkEEtyTxBLBalwZ1RMD+uDZtB2ktPwU+PqsCryB1BgcUTwMged8BonTVBZ77GwbFnEUKGBbDB
lpc_rms=-26.09
sample=Clarinet_sustain_PP_G#5.opus
tune=+2
</region>

<region>
hivel=127
key=G3
loop_end=256830
loop_mode=loop_continuous
loop_start=56993
loop_xfade=24214
lovel=0
lpc=g9omQ9Bkk8MYb/JCbzlrwYkuGUK/wynCjsiDQbunzkAXArBBkSuOP0Hgr8H4RatApYHEv+xigMGE6v9ALBVHQVVTb0CzkYTBrX4LQZJBGsAsuEg/RniIwLVtjMDPeQ5B
lpc_rms=-23.09
sample=Clarinet_sustain_PP_G3.opus
</region>

<region>
hivel=127
key=G4
loop_end=272062
loop_mode=loop_continuous
loop_start=60373
loop_xfade=25650
lovel=0
lpc=tzkXQ8NzkMMlThpDkx9nwXQ8y0HwTKbB5t0XwVRgEUArLl5Bo2+pv7Ajp8DHw77AVCzMv8sxVkAIw6lABextQCFjh79oMDXBHy8JQcOGsD5Te/PAHhziP+DMEsF5L49B
lpc_rms=-26.02
sample=Clarinet_sustain_PP_G4.opus
tune=+2
</region>

<region>
hivel=127
key=G5
loop_end=260617
loop_mode=loop_continuous
loop_start=57833
loop_xfade=24571
lovel=0
lpc=N1YeQ6rAlcPCyGtDl8qtworrKEI1b3nBVgnXwI1Mr0AMlTBCxEkewrccJ0GU4DtBQPiLwG/NVcAi1MRB5txFQbH708HPtQxALfmIQVF+6EAFk1XAoLjLQHZ6i8B6DIhB
lpc_rms=-23.39
sample=Clarinet_sustain_PP_G5.opus
tune=+2
</region>
</group>

<group>
amp_veltrack=0
ampeg_attack=2
ampeg_release=0.35
group_label=MF
lpc_hicc1=84
lpc_locc1=43
volume=-3

<region>
hivel=127
key=A#3
loop_end=262021
loop_mode=loop_continuous
loop_start=58145
loop_xfade=24704
lovel=0
lpc=p9OAQhDSMcPXjCdDzNiAwoM0n0Fb+a8/r22zwd20MEEs4OJA9J4mwe7OdcCbDr9BEVDawW+BAUEC1L9A8bgmQMKwA8F12Qg/Cp2ZQELGpcD/lSw/Ar7qQJyV/8AcZCdA
lpc_rms=-21.30
sample=Clarinet_sustain_MF_A#3.opus
tune=+2
</region>

<region>
hivel=127
key=A#4
loop_end=272727
loop_mode=loop_continuous
loop_start=60521
loop_xfade=25713
lovel=0
lpc=Hb+3Qs3qjMNpWKRDEZ0pwy0IKUIzt/XBwjN2Qsy4BMMmxTxD5l0bw1REvUJiVCzCiTOqwZE1KEKhBFU/veCRwXnw0cDZfYVAjimlQU1Vc8E42hfB6oyWQUoaScHoPpFA
lpc_rms=-14.05
sample=Clarinet_sustain_MF_A#4.opus
tune=+2
</region>

<region>
hivel=127
key=A#5
loop_end=273535
loop_mode=loop_continuous
loop_start=60700
loop_xfade=25789
lovel=0
lpc=L5B4QkcKwMLX3LdC3PgnwpfNREGqSJdBrLDywIQIE8EiGhFCgO7GwdV9iEHDmflAz4y0wJM5qUDzvUtBpA2KwAswtEDUHk1Bj1kOwQOeRkBKtdxBmv7wwdZNEkKyvHXB
lpc_rms=-21.40
sample=Clarinet_sustain_MF_A#5.opus
</region>

<region>
hivel=127
key=A3
loop_end=262585
loop_mode=loop_continuous
loop_start=58270
loop_xfade=24757
lovel=0
lpc=beSfQrk/asPXoHNDCiDpwnjEIEKHjilBg5cZwnHOHkFqGjRBzyqJwZcfKUEfvnFB/y+9waJxWz8s0qRBbwxGwWdir8DudRdB8T0hv6qYIcHiVgFBaZ1IwACWnUAN2UnA
lpc_rms=-21.56
sample=Clarinet_sustain_MF_A3.opus
tune=+3
</region>

<region>
hivel=127
key=A4
loop_end=274491
loop_mode=loop_continuous
loop_start=60912
loop_xfade=25879
lovel=0
lpc=xTsFQ3qBx8OhX85D7tsJw0UOZUCJ4D3C5hOeQh1PCsNduTxDuuAPw2rMsUIwKRjCkwjvwUeVh0F43f9BGanEwNHkrMEj/wfAh7u9QUBBwMHU6qNBb+s0weoLzr8zsoNA
lpc_rms=-11.11
sample=Clarinet_sustain_MF_A4.opus
tune=+2
</region>

<region>
hivel=127
key=A5
loop_end=252813
loop_mode=loop_continuous
loop_start=56102
loop_xfade=23836
lovel=0
lpc=y0/UQrNGEMMZ8PtCRkXPwcBGjcCdxxRCrDMIwMmOgMBLHf5B7ykeQYIiBcGTfZ1B9DWcQSKXycCAFqFBuI6QQfvxgcGozvlByeaCQXsbHcGIUWFBoU3ZQdw5c8Ez6Q1C
lpc_rms=-17.32
sample=Clarinet_sustain_MF_A5.opus
tune=+1
</region>

<region>
hivel=127
key=B3
loop_end=253640
loop_mode=loop_continuous
loop_start=56285
loop_xfade=23914
lovel=0
lpc=fV1aQqmPFcOkjAxD/+R7wpzeI0IlIdjBHpJGQNYb8r+gF/dARvIhwU6rRMB+ZGpBXW3fwCmPNsDG8eZAVZZ6vf0f6sANtUA/Hf4EQf0ULMFcVo1AhuQxPsJqMkA9ChnA
lpc_rms=-22.58
sample=Clarinet_sustain_MF_B3.opus
tune=+2
</region>

<region>
hivel=127
key=B4
loop_end=272543
loop_mode=loop_continuous
loop_start=60480
loop_xfade=25696
lovel=0
lpc=NDq+QmsWiMOxwZ5DCNJAw1Emq0I/jA/CfCYvQMoMEMKpVdRCLuLjwlfXe0IVx17ByhOswLReMj+JG8BAQ84EwXpqt0D5EcNAfcK3wPkuT8HRUa5BKdTjwDEocsBkjIRA
lpc_rms=-11.97
sample=Clarinet_sustain_MF_B4.opus
</region>

<region>
hivel=127
key=B5
loop_end=273729
loop_mode=loop_continuous
loop_start=60743
loop_xfade=25808
lovel=0
lpc=xpv/QpHTO8Oi0R9DvcWFwl41pUExpTdBistjwchMg0GsAVtBLqgjwX+Pb0CCNQVB7qOIQRiJXcFRRMtA8Xw2QXIsNUGcxE7BPhMeQeQOe0EUmoTBicUJQl22jcF7v6bB
lpc_rms=-15.61
sample=Clarinet_sustain_MF_B5.opus
</region>

<region>
hivel=127
key=C#4
loop_end=269894
loop_mode=loop_continuous
loop_start=59892
loop_xfade=25446
lovel=0
lpc=AZtjQh+rCcP1hNlCfEUUwge0p0Ea37fAPpQLwDqZKMFHI4BBEhGFwYQfokATLYK+P5XfQLe8KMH8wSVBl+5GwO0Jpr8D0pY/UogcQFq6DcHBTI5AL7eVPeOuI0D/A4W/
lpc_rms=-22.86
sample=Clarinet_sustain_MF_C#4.opus
tune=+1
</region>

<region>
hivel=127
key=C#5
loop_end=273946
loop_mode=loop_continuous
loop_start=60791
loop_xfade=25828
lovel=0
lpc=bjBCQnUeKsOKmnRDGS8sw4veUUICKtbAQMKSQQUFC8IldDNCwdclwkXN7kHFIZnBm180wCu4u0FR3EXBC1NswP3uEMHi/1dBDch0QTnE0cF/Rqi/O0LGQd8rqcFu2d5A
lpc_rms=-20.49
sample=Clarinet_sustain_MF_C#5.opus
tune=+2
</region>

<region>
hikey=B6
hivel=127
lokey=C#6
loop_end=259377
loop_mode=loop_continuous
loop_start=57558
loop_xfade=24455
lovel=0
lpc=WdeJQn1ticJNqwBCVYsWwUf3PkHgnp/A9jSmQf7WjcETbcxBm6AewYu3Q0EZwSJAtlJeQBOGgkCYl/5AeGYswLOCjkHEB0vBfJSYQVfWvsDGaZdBWvEkwjG3lkC566ZB
lpc_rms=-19.16
pitch_keycenter=C#6
sample=Clarinet_sustain_MF_C#6.opus
tune=+2
</region>

<region>
hivel=127
key=C4
loop_end=274886
loop_mode=loop_continuous
loop_start=61000
loop_xfade=25917
lovel=0
lpc=M3mwQjG+dMP1Y2VDW9S6wuj1L0L8ijfBpoOOwUnYO8Ad1VRBRFU1wUHFe0AgQzhB4BkdwTp0McF1KORBRzJjwZj6BMGp//5A8lo6wMoJocDa5AdBEItUQbxv2MFKEj5B
lpc_rms=-20.91
sample=Clarinet_sustain_MF_C4.opus
tune=+2
</region>

<region>
hivel=127
key=C5
loop_end=273673
loop_mode=loop_continuous
loop_start=60731
loop_xfade=25802
lovel=0
lpc=7ZD6Qar6xcJQAQRDxeixwrwmz0EM3KHALUyeQRWvAcK7h/VB6P2fwYZR80ATqgBAyAO+wJ2s4r9GtC5B2oCOwP/XycAmF1tAVWqSQHg4pb/mDp3AtQF7QK+8Mr/vF1M+
lpc_rms=-19.15
sample=Clarinet_sustain_MF_C5.opus
tune=+2
</region>

<region>
hivel=127
key=C6
loop_end=273009
loop_mode=loop_continuous
loop_start=60583
loop_xfade=25740
lovel=0
lpc=ylHKQvoZBcOlaLNCEPj8waeg0EDRw6rAVb26QQ/v/cHi5qpB2uZsQbe0KsIiPDpC+JIlwbDg9MEcW0NC3qLSwZtEnMBrqONBSFa0wa8i3EBeD5xAuOh2QSTEhML6GMtB
lpc_rms=-17.66
sample=Clarinet_sustain_MF_C6.opus
</region>

<region>
hivel=127
key=D#4
loop_end=272949
loop_mode=loop_continuous
loop_start=60570
loop_xfade=25734
lovel=0
lpc=MlbgQczZncLSaKdC4asnwmAUKkFxTAVBH1y4wRwCq0F9mx7BJjKDPzJHCkARTRW/MLMkQLWPTsH8M35B55iLwM3+xMAmevlAsfIPwGXn18CACvpA4sEePqoAhsAsRvo/
lpc_rms=-29.55
sample=Clarinet_sustain_MF_D#4.opus
tune=+2
</region>

<region>
hivel=127
key=D#5
loop_end=269486
loop_mode=loop_continuous
loop_start=59801
loop_xfade=25408
lovel=0
lpc=3ihyQoD3NcNEo3BD+NYjw1VfE0Lxw71BH9LpwMFItcGNdyJC9AkbwhDz00FRjUHBzpuNP2B5bb8iidy+6qz5QBy17b/RPhzB70uUQekhZ8E4/5PAsSICQsBlL8LhL7NB
lpc_rms=-17.74
sample=Clarinet_sustain_MF_D#5.opus
tune=+2
</region>

<region>
hivel=127
key=D4
loop_end=271536
loop_mode=loop_continuous
loop_start=60256
loop_xfade=25601
lovel=0
lpc=g57bQWWVkML+bYpCSSsLwkkytkG1zX/BxqL7P9d2GUDCyiq81+yCv7rBjT4rvqs/VlWBP4XSuMB5Y8hAFw2QwLRy2D9nVpW+dGYDQIeAEL8eWhbA0NI3QLZ/QsAy+dk/
lpc_rms=-25.98
sample=Clarinet_sustain_MF_D4.opus
tune=+1
</region>

<region>
hivel=127
key=D5
loop_end=270553
loop_mode=loop_continuous
loop_start=60038
loop_xfade=25508
lovel=0
lpc=nBnyQRyvscL4OtRCpk54wnqroUEouxrBkjK+QKFAqsAHPpJBVjqdwbcj5T1jAlxBmnfuwCmHhcBG5H9ApggvQHc3YcDj3iRA4Q/avlvbWcC0zAs/Ks5iQZe6r8HNQCpB
lpc_rms=-24.00
sample=Clarinet_sustain_MF_D5.opus
tune=+2
</region>

<region>
hikey=C7
hivel=127
lokey=D6
loop_end=249272
loop_mode=loop_continuous
loop_start=55316
loop_xfade=23502
lovel=0
lpc=2Og4Q1dkYMOFVLVCq7tjwUuzI0LSn5/BC/cVQh9T4sHbdTxCa6KMwYY8wEElJ3DAqbXJQXgCLcEh96ZB2xF2QWXnPMEjEutBksQswUwMM0Jvfw3DSHiLQgk/mEIP5S3C
lpc_rms=-12.78
pitch_keycenter=D6
sample=Clarinet_sustain_MF_D6.opus
</region>

<region>
hivel=127
key=E3
loop_end=255840
loop_mode=loop_continuous
loop_start=56773
loop_xfade=24121
lovel=0
lpc=9OpcQhEjGMPVwA1Dj1tAwqeUqUHc2/LBLLKEQdS+UMH8PKVBHaWQwW9KS0Fz5ArB0F6JQF9iCsHm30VBbtgcwNGdgsCUyHpAPdBLwBqpyz8RVVHB01PPQQJFicFPm3hA
lpc_rms=-22.39
sample=Clarinet_sustain_MF_E3.opus
tune=-20
</region>

<region>
hivel=127
key=e4
loop_end=270795
loop_mode=loop_continuous
loop_start=60092
loop_xfade=25531
lovel=0
lpc=KZChQpZyUcMBHTRDqkNdwkQst0HLlHXBA1GMwWoiG0FxcglBDTonPysbjMCkMwFACESav2pDFMHLRMVAa3mzQHMruT9Kaee/DfjMwG88gcAfK7hAsJu1QX61FcLzZ4hB
lpc_rms=-18.71
sample=Clarinet_sustain_MF_E4.opus
tune=+1
</region>

<region>
hivel=127
key=E5
loop_end=274948
loop_mode=loop_continuous
loop_start=61014
loop_xfade=25923
lovel=0
lpc=Yq2VQn9AZcO3/5hDWtZOw7uPM0LlGRZCkbKfwQCZ2cFcb2JC6WxgwojjB0IN/g++Xbi7wQAVqEEib59A3r5awf6ZDsFT6MpBgwbBwJIln8GOr7JBn13jP/bqpcHyjWZB
lpc_rms=-14.17
offset=12543
sample=Clarinet_sustain_MF_E5.opus
tune=+2
</region>

<region>
hivel=127
key=F#3
loop_end=271676
loop_mode=loop_continuous
loop_start=60287
loop_xfade=25614
lovel=0
lpc=Yp2yQsqRYcP+qD1DyStzwuRKjkH4+JXA7TUYwSAkL0BubaBAoIVOwO7hlT/0lerA4zk7QU2Wm8FdM1ZB8NcRQZFmUsEn7Zs/gK5mQAV98kAoojfBBfLHvnBpsz6is1tA
lpc_rms=-17.54
sample=Clarinet_sustain_MF_F#3.opus
tune=+1
</region>

<region>
hivel=127
key=F#4
loop_end=270055
loop_mode=loop_continuous
loop_start=59928
loop_xfade=25461
lovel=0
lpc=M+58QnvEEsMG+vdCV890wjVOPkI6rAXCO6TgwGkz00HNYS7BfByjP+944L4Fd5TA0T/uQGoHFsG0QoxA3ro1P03dWj+SGvw/OF82vyqVuMDBL3ZAY7mcQMfBYcHKUShB
lpc_rms=-17.50
sample=Clarinet_sustain_MF_F#4.opus
tune=+1
</region>

<region>
hivel=127
key=F#5
loop_end=278199
loop_mode=loop_continuous
loop_start=61735
loop_xfade=26229
lovel=0
lpc=O2LoQt8LgcNOpWlDzNyewhC9GUG3qwTB4BwDQY10S8HbwBpClATywThVT0Ff9TVBa8xiwQNaMsHs8+BBKBiDQTGz/sEL/VFBjKmDwK7tsT2h07pBJJNdQRB0esJ2c0JC
lpc_rms=-13.16
offset=12078
sample=Clarinet_sustain_MF_F#5.opus
tune=+2
</region>

<region>
hivel=127
key=F3
loop_end=270644
loop_mode=loop_continuous
loop_start=60058
loop_xfade=25517
lovel=0
lpc=8Gr4Qd/KmsI8wWhCcqsVwfqttkBp9Z3A6wxewP7dFsHG21ZBT0ygwIZewUAV6D/ASVEXwMwTxMAKJCBBN34ov8XRPMAX67k/OVxTv1dy/b90Nb4/010mv9n6MUCerem/
lpc_rms=-24.42
sample=Clarinet_sustain_MF_F3.opus
tune=+4
</region>

<region>
hivel=127
key=F4
loop_end=269201
loop_mode=loop_continuous
loop_start=59738
loop_xfade=25381
lovel=0
lpc=8ew2QoJn/8KFK/tCsAxRwkNSi0FheavAz1ACwdfNkUAr5vw+nv4fwK/sBkEdCr/AkwYVwDPzIcCGDx9BTNxawL4ZXMCVjcg/sFw/P+7/Vj7yRZDAia9EQXBIYcGhyr5A
lpc_rms=-22.47
sample=Clarinet_sustain_MF_F4.opus
tune=+2
</region>

<region>
hivel=127
key=F5
loop_end=266618
loop_mode=loop_continuous
loop_start=59165
loop_xfade=25137
lovel=0
lpc=LX0+Q7sC/sM6NxJEz22pwxi/kEI2l55CrZDawtVwM0IuVSlChbh7wmUqMkLd4jNBR7VdwtC+IUICpgjBXSPwQVoi3sHP6LS/28znQVXCGcLzqq/A6pT8Qhw6KcNJxahC
lpc_rms=-12.37
sample=Clarinet_sustain_MF_F5.opus
tune=+1
</region>

<region>
hivel=127
key=G#3
loop_end=264738
loop_mode=loop_continuous
loop_start=58748
loop_xfade=24960
lovel=0
lpc=KMCaQswjY8NR1nND4/f+wgAbaEJToInBKRjMwfqRHUGwL+5Bq7YfwiEB/0GbTkLBRG+/wDE01cAu2aNBw4QZwStguz8mYwZAtnVGP7CwVMHrMmRBTtvTwJhFBkAM+Li9
lpc_rms=-21.09
sample=Clarinet_sustain_MF_G#3.opus
tune=+2
</region>

<region>
hivel=127
key=G#4
loop_end=272251
loop_mode=loop_continuous
loop_start=60415
loop_xfade=25668
lovel=0
lpc=Plf7QvUFs8Py2bJDrVnzwlPIl0F67RnCzUQyQNEjFEH2vJhBAoJTwQMoo0B6o4fAoqVYwdHnR0EeROxADCnKwIlus7tv4hzBkEyAQe8yHMEgxL2/PzxyQQdfncF2iyhB
lpc_rms=-16.32
sample=Clarinet_sustain_MF_G#4.opus
tune=+1
</region>

<region>
hivel=127
key=G#5
loop_end=255935
loop_mode=loop_continuous
loop_start=56794
loop_xfade=24130
lovel=0
lpc=1ubwQjcug8M8iJZDA1olw1ssl0GQ8V5CP76wwRzpKsFalSRC95TWwYpOlEBnyC5CTSAwwgAc3UFhayZBew3WwCOJzT8qMLFBSHzJv4yr0cFf+WNCAKSgwe9lYMFlP/5B
lpc_rms=-18.85
sample=Clarinet_sustain_MF_G#5.opus
tune=+1
</region>

<region>
hivel=127
key=G3
loop_end=269019
loop_mode=loop_continuous
loop_start=59698
loop_xfade=25364
lovel=0
lpc=xXX1QitFlsNXpFRDByrSwaJCCUKmUFzCiwUmQaJ/+MDt6K1BavmEwe4juL7rq6RAvuuSwN3KJb8ExFNBtWCBQKNAesGu7eDAGjiLQJQd50CvX/tAyqoHwTCzqMB32qRA
lpc_rms=-18.08
sample=Clarinet_sustain_MF_G3.opus
</region>

<region>
hivel=127
key=G4
loop_end=273339
loop_mode=loop_continuous
loop_start=60657
loop_xfade=25771
lovel=0
lpc=LgavQgOZZsOqVFND4FqTwikDu0HHnJLBB9VlwVAYuUE5C3o/VI6EwZtG1UBekmNAE0MUQVp2TMHdKKnAgdCOQMNbd0BTiV/AUXwiQbT9/8Cw1to/H8HpP3Y+V8HH6TtB
lpc_rms=-17.80
sample=Clarinet_sustain_MF_G4.opus
tune=+3
</region>

<region>
hivel=127
key=g5
loop_end=271066
loop_mode=loop_continuous
loop_start=60152
loop_xfade=25557
lovel=0
lpc=4Wu/QlscYMNUIHtD7hn9wtuMFMBceUFCdm4JPSrYWsKR2axCEmGPwkqPMEKfq9+/I9RWwamLkEGsb7/BFT2KQqJCu8LDrX5CRf+UQUVtT8KKAI9BdVleQgZZmcI0cTpC
lpc_rms=-15.32
offset=4082
sample=Clarinet_sustain_MF_G5.opus
tune=+2
</region>
</group>

<group>
amp_veltrack=0
ampeg_attack=2
ampeg_release=0.35
group_label=FF
lpc_hicc1=127
lpc_locc1=85
volume=-3

<region>
hivel=127
key=A#3
loop_end=272737
loop_mode=loop_continuous
loop_start=60523
loop_xfade=25714
lovel=0
lpc=8QGvQQ5WcMJsPnFCjuSzwVzep76TlQK+FJgqwIHXFEFvCz3AdkCiwDjnF8DGiDNBPv30wMUWB750Z7C/5V4AQZ6k0sBCYyxAhlHXvzVMEL7Tv8c+lPqvvw2ZMUB7xpG/
lpc_rms=-23.10
sample=Clarinet_sustain_FF_A#3.opus
tune=+1
</region>

<region>
hivel=127
key=A#4
loop_end=276060
loop_mode=loop_continuous
loop_start=61260
loop_xfade=26027
lovel=0
lpc=wdrAQdgthMKOLodCkA+6wcdcZsBPsZK/th/UQIuuTsEV1p1Bkc5UwfBSsEA27Y7AHUomwHD15kB3VZO/pIKIP5SL7sCpD5FARMOPQDIa08CpZ3FAAXikP8zPl8Ar1TlA
lpc_rms=-19.73
sample=Clarinet_sustain_FF_A#4.opus
tune=+1
</region>

<region>
hivel=127
key=A#5
loop_end=276011
loop_mode=loop_continuous
loop_start=61250
loop_xfade=26023
lovel=0
lpc=xTwXQmF9AcJ+e7VBRn84QOey6UBy4NxA9C64v6wT5kCobjNBIH/kP7DkIUGQsw/B/CyfQR1Xj0ApiIk/1ta7vmreikG+kBTA3QBqQVtoBMGrh1lBlot4QMiYIUHG0Iw/
lpc_rms=-16.39
sample=Clarinet_sustain_FF_A#5.opus
</region>

<region>
hivel=127
key=A3
loop_end=267156
loop_mode=loop_continuous
loop_start=59284
loop_xfade=25188
lovel=0
lpc=uvEpQo9B/cLyHhFDxNOMwuVKS0DRlStB6FKqwPsrZEBWEKnAaXBvQBZMXb7rcA1AEEyYwETe2L8YE9RA/dSywEu06z9nhJ4/bbujQNtEQMGRCjdA7HQgQWT5KMFtKYdA
lpc_rms=-20.13
sample=Clarinet_sustain_FF_A3.opus
tune=+2
</region>

<region>
hivel=127
key=A4
loop_end=273873
loop_mode=loop_continuous
loop_start=60775
loop_xfade=25821
lovel=0
lpc=WYk9QuDb/cL5AwdDqQeGwlfGP0G8PovAB4i2QfL7MMLX/G5CHENawvme/EG+YxLBf1P3wCj0IkHmV/TAzP0qQcaNPcF9c1lBvuVvwTJCOkHTjuHA4t9AQZl/nMFQWDxB
lpc_rms=-11.75
sample=Clarinet_sustain_FF_A4.opus
tune=+3
</region>

<region>
hivel=127
key=A5
loop_end=267175
loop_mode=loop_continuous
loop_start=59289
loop_xfade=25190
lovel=0
lpc=zcTzQTR6BMI1etNBs3yxPhrY8sA8s7JBOb8bweuVVUBnRhFBn1IBQA8BtUDcG/e/7Nm5QDEJtUC92X1AWAAeQMyCuD4Mv4xA15JWQaZXI8GSqztBADufP0P6NT+xIzdB
lpc_rms=-14.51
sample=Clarinet_sustain_FF_A5.opus
tune=+1
</region>

<region>
hivel=127
key=B3
loop_end=271464
loop_mode=loop_continuous
loop_start=60240
loop_xfade=25594
lovel=0
lpc=WLgRQnJ9ycJ7tcFCKWggwmNSxUFHYNPBW4YKQe1LAMCysQ5BRn0xwdfrxED9m6o/b9aNvsCz68AJ3pJAF3tpQL0OhcDCRqVAgjXqwLXRND9QWqtAJLOJwMD/O0A6xqy/
lpc_rms=-21.06
sample=Clarinet_sustain_FF_B3.opus
tune=+1
</region>

<region>
hivel=127
key=B4
loop_end=272686
loop_mode=loop_continuous
loop_start=60512
loop_xfade=25709
lovel=0
lpc=lBAXQjSByMJP/txCF0uAwtIUyUHyvQnBUckRQQLy0sGt0w5ClCbFwdHyO0Gx7Zq/02kTwbnX50A7h/M+uManP5pk4sDZfuFA7pbGvxcl0r+bbk1A5As5v4w9jMAZipZA
lpc_rms=-12.27
sample=Clarinet_sustain_FF_B4.opus
tune=+1
</region>

<region>
hivel=127
key=B5
loop_end=271836
loop_mode=loop_continuous
loop_start=60323
loop_xfade=25629
lovel=0
lpc=sNEAQ7zKBsPaC7BCijwlwTuG3z/WOgvBA4VKQtZxMMLxV+ZBft99QVWSMcFpviZBNDVPQZF/G0AiN03AKju2QScHpUDy37/BJwdGQlLodcGd5LLAfHDbQQVDgEFjqVbC
lpc_rms=-7.89
sample=Clarinet_sustain_FF_B5.opus
</region>

<region>
hivel=127
key=C#4
loop_end=273054
loop_mode=loop_continuous
loop_start=60593
loop_xfade=25744
lovel=0
lpc=k4RAQmrzEcNmYSZDs42kwr4WikFGvz3B6EVpQS2oA8HY+NxAAO1OwPKjr8DbjBlAosBaQBSsK7+UmOc+Te2qwHNy9D9HrlxBdZw2wWaqBcEDMT49GbS6QfD6pcFB1alA
lpc_rms=-16.16
sample=Clarinet_sustain_FF_C#4.opus
tune=+2
</region>

<region>
hivel=127
key=C#5
loop_end=272105
loop_mode=loop_continuous
loop_start=60383
loop_xfade=25654
lovel=0
lpc=wjeRQU47MMKnEzBCrH+eweYsuUCzKxrBzUBYQbIxN8EGofhAM0xnwPA6U0B8xQTBZWxDQeaQ/cCaDFjAVM8+QSbDOsG6RrVA5wFHv5HsjkC8gwnBQf2DQI0DdkCG5VbA
lpc_rms=-17.49
sample=Clarinet_sustain_FF_C#5.opus
tune=+3
</region>

<region>
hikey=B6
hivel=127
lokey=C#6
loop_end=267260
loop_mode=loop_continuous
loop_start=59307
loop_xfade=25198
lovel=0
lpc=gXZsQq5QKcL4S7tBXZ8mQVhvakHmpThBT7KUQZkkQUF9QUZBguCUQVYkMUGqo15BQvGKQZ6EL0FYv4BBV6JbQT3RcEGwOixBEsCsQfqwlkD0S9FBfGCOwV8UaMBeR/JB
lpc_rms=-9.60
pitch_keycenter=C#6
sample=Clarinet_sustain_FF_C#6.opus
</region>

<region>
hivel=127
key=C4
loop_end=271982
loop_mode=loop_continuous
loop_start=60355
loop_xfade=25643
lovel=0
lpc=kvD+QYkjucJ1J8dCf1Q4wruA/kB2gVk/cMwtv4Z7MsCEUApA3dX5vj7Gp0CNA9/AyALlu4hCpDw5PItAhdo8wLiMgEBavjS/cdt6wGMnhsAGFAJBV0UCwInoqr1LHbi+
lpc_rms=-22.74
sample=Clarinet_sustain_FF_C4.opus
tune=+1
</region>

<region>
hivel=127
key=C5
loop_end=269937
loop_mode=loop_continuous
loop_start=59902
loop_xfade=25450
lovel=0
lpc=AZduQZ/OHcIPADFC5WLhwcvudUGcpkPB+3UrQVYXLcERZEdBI4nfwME9JMCJN5ZALm5Jvun0X8DtCnxAOELwv0iYLL+yw7U+Z6KPPz0IK0Ayn9TAS++YQOrDBr+tx8a+
lpc_rms=-17.27
sample=Clarinet_sustain_FF_C5.opus
tune=+1
</region>

<region>
hivel=127
key=C6
loop_end=267831
loop_mode=loop_continuous
loop_start=59434
loop_xfade=25252
lovel=0
lpc=WhFmQji6IcL1hQxCclpUwWYuhUEgkA/B6JyTQVKOG8GsJlxBxi4OQEoyQb/DHR9Bmmc8QIHZXT2FLw9BgXGMQJ3Ob8CW8ItBr34vwS0WlEE7eB7BuWO0Qcbc4cFgRP7A
lpc_rms=-14.70
sample=Clarinet_sustain_FF_C6.opus
tune=+1
</region>

<region>
hivel=127
key=D#4
loop_end=273823
loop_mode=loop_continuous
loop_start=60764
loop_xfade=25816
lovel=0
lpc=SaUOQl8d1MILSPVCeuSBwqMLC0FJySVBCiOGwc/Au0FhFpjBxxU6QbgtB8HOY5pAnDKxPrAKFMGAKzRB+jbzwLeK2EB69mjAKDiGQDEDAsFbwUxARX0dQRdkeMFeRt9A
lpc_rms=-20.15
sample=Clarinet_sustain_FF_D#4.opus
tune=+2
</region>

<region>
hivel=127
key=D#5
loop_end=275134
loop_mode=loop_continuous
loop_start=61055
loop_xfade=25940
lovel=0
lpc=RIpQQXmW38EiI65B+UHJwFIYh0As+QfBDPW9QMIhGcDA3rBAtuVRwIMDisCghsJAzHhnPsrazsBIPUVA8h48QO7KVD9dhFvA1LYfPlpxA784prBAxdrbv9on2sB6K61A
lpc_rms=-19.24
sample=Clarinet_sustain_FF_D#5.opus
tune=+1
</region>

<region>
hivel=127
key=D4
loop_end=271367
loop_mode=loop_continuous
loop_start=60219
loop_xfade=25585
lovel=0
lpc=hJVnQqahIMN57yJDbiWQwqMgvUEdro/B4qeNvl8yHUFyOYpAf5j2wGiQn8CSjKJAGzcdQMqipMC00y9A3laFwPzDH0FKJCfBwE6EQactv8F4TIRBL03ewKY8oUBIAwjA
lpc_rms=-12.60
sample=Clarinet_sustain_FF_D4.opus
tune=+1
</region>

<region>
hivel=127
key=D5
loop_end=273557
loop_mode=loop_continuous
loop_start=60705
loop_xfade=25791
lovel=0
lpc=jqHdQU9lj8KS9qNCPVxlwnEWFkJ9cwvC/YoOQqdazsG+nAZBaIoAQOgWNsAko6BAkcQNwUZR/UD2KrrAieCWQIQNpcCS8B9BN4fvwCTRMMA0HDlBhzsNwU7rvT+dcYA/
lpc_rms=-12.77
sample=Clarinet_sustain_FF_D5.opus
tune=+2
</region>

<region>
hikey=C7
hivel=127
lokey=D6
loop_end=261236
loop_mode=loop_continuous
loop_start=57971
loop_xfade=24630
lovel=0
lpc=X5kXQwEv68Ke5xfBBShKQlk/+0CqN1tBYDOaQWc8DkED345BiIA6QQCzi0FclzhB4Fh/QUBidkFfXyRBXk6jQR9VnUAqhPRBeQIqwVUOW0I8SdvCye2iQMtQ9UJjj0bC
lpc_rms=-5.35
pitch_keycenter=D6
sample=Clarinet_sustain_FF_D6.opus
</region>

<region>
hivel=127
key=E3
loop_end=272984
loop_mode=loop_continuous
loop_start=60578
loop_xfade=25737
lovel=0
lpc=ucnrQTD4rMIMN8VCI+hlwmjd4UF486/B8PdhQURQDMGoPGJB4vxSwYny8z+8uDNAICEPPuOw+8BJqVVBRYCiwPHqgr+J5IHAhyRXQHIAFkCGV5K+0H2MwKg0X0B+ayC/
lpc_rms=-18.89
sample=Clarinet_sustain_FF_E3.opus
tune=-11
</region>

<region>
hivel=127
key=E4
loop_end=272459
loop_mode=loop_continuous
loop_start=60461
loop_xfade=25688
lovel=0
lpc=z23gQSiumMLbOJVCgWLGwXPSjMD6c/9Ar7c6wTgvxkBodgVBgzogwRlzhED9wq/A0t04QN5UmD37M55AcJahwG6uJsB2O5BAc7RUQNu8FsF0LeJAf+Ipv8dATcCFPA9A
lpc_rms=-20.38
sample=Clarinet_sustain_FF_E4.opus
tune=+1
</region>

<region>
hivel=127
key=E5
loop_end=278531
loop_mode=loop_continuous
loop_start=61809
loop_xfade=26260
lovel=0
lpc=rbezQRYLQ8IsGiBC7KluwdwnCUGBfWPB1BKZQdXvfcEm+fVAVdmIvyk2s0BgxTHBmNiZQB+FAT+1KftADZAzwbHSkkCvwiK+5ZSIQHxI/8BBm/pAZLweP3eiJcGDRgJB
lpc_rms=-14.78
offset=13401
sample=Clarinet_sustain_FF_E5.opus
tune=+1
</region>

<region>
hivel=127
key=F#3
loop_end=273710
loop_mode=loop_continuous
loop_start=60739
loop_xfade=25806
lovel=0
lpc=4/D2QTZDwMIMkO1Cls2KwiSMt0G80pLBwlOaQYAoQ8Fmq0ZBkolAwcExoEB1PZk/q6JZwEl37L9cCQJAktHBQPuYGcByAgjBZhmiQCXBvUAdjB7BLa4nQS1kFsEMCnNA
lpc_rms=-23.59
sample=Clarinet_sustain_FF_F#3.opus
tune=-2
</region>

<region>
hivel=127
key=F#4
loop_end=271584
loop_mode=loop_continuous
loop_start=60267
loop_xfade=25605
lovel=0
lpc=lqjZQcQ0mMIL46BCFnX5wZd2TsD/89o/UBQKP08wvD7xqvVARkUgwdP3fUD6cXXAb6mbQBXTW8DfQ8c/MNA2PfBvrD/9K37AL3G4QCjn9cBw1c1AJX9JPwPdscBM6lVA
lpc_rms=-18.14
sample=Clarinet_sustain_FF_F#4.opus
tune=+1
</region>

<region>
hivel=127
key=F#5
loop_end=283719
loop_mode=loop_continuous
loop_start=62960
loop_xfade=26750
lovel=0
lpc=X6jaQccCfcKMLYJC7fEQwnm1l0FehEbBk60xQYqUbMHe9n1BgwyCwIhCET5c8VzAhA2wQK+4jsDl7dE/TeUdQYJdMcGBZI9AulCLwKlkFEGF+OHAcFlMQaCflMHhhj9B
lpc_rms=-14.86
offset=13954
sample=Clarinet_sustain_FF_F#5.opus
tune=+1
</region>

<region>
hivel=127
key=F3
loop_end=275047
loop_mode=loop_continuous
loop_start=61035
loop_xfade=25932
lovel=0
lpc=i9SoQVFTYsLGuFNC1feIwZF9vEDyGEXBxxnwQIEijsDv3BxBOo3PwNfG/b6e8bi/X1qJQDggucCD/fpAMsmiwFPnqz+aDIU/AkySwKwiiEDbDIa9/qfHvxP0Pj/Z7Ty+
lpc_rms=-25.69
sample=Clarinet_sustain_FF_F3.opus
tune=-1
</region>

<region>
hivel=127
key=F4
loop_end=270667
loop_mode=loop_continuous
loop_start=60064
loop_xfade=25519
lovel=0
lpc=+d4tQqLh6sI3P9NC93TPwXIWFEAHaHnBZpYrQBfHq0ADtK5AJyuqwOeq2j99ZGzAnSGyvpasmL+fgapAv4j1Pw9l4L/OPvrACQoWQemPKMFG+UBBKAhDvpHiPcFqV+hA
lpc_rms=-18.67
sample=Clarinet_sustain_FF_F4.opus
tune=+1
</region>

<region>
hivel=127
key=F5
loop_end=271514
loop_mode=loop_continuous
loop_start=60252
loop_xfade=25599
lovel=0
lpc=OTytQQLTL8IwmCFCfLunwduS0kCJ2o7AnqkcQXNB98DhGfhAd6XawO9sYUB6dJK/8yc+QEzF5cCfT+9AtvAGQEr+7cCyLBJBURS7wNNdiEBpcMXAPOfsQArk3MD7R7tA
lpc_rms=-14.36
sample=Clarinet_sustain_FF_F5.opus
tune=+2
</region>

<region>
hivel=127
key=G#3
loop_end=265072
loop_mode=loop_continuous
loop_start=58822
loop_xfade=24991
lovel=0
lpc=PQM0QsZkGsPw2VxDM8wkw6SIc0KeGom/zcRrwVrZkUHZcQ3BzTqAwde45EHOejzBc3t4wMVfCMFLe5lBUnMfwdrWGkCKmQU/dwXNwH/CAUFSlx/A3+47v0l8zb+Cwdw/
lpc_rms=-21.77
sample=Clarinet_sustain_FF_G#3.opus
tune=+1
</region>

<region>
hivel=127
key=G#4
loop_end=272202
loop_mode=loop_continuous
loop_start=60404
loop_xfade=25664
lovel=0
lpc=jHHHQR7pg8LWQHxCN1KFwfJKg8AgqjfBU91/QVClp8BT3OQ/LF79v6hCDkCAGL3ADyvzQGzIFMDi6rLAYhTVQPgxUcDLRHlAFzwCwAL86cATo+9A7HkJQSWRi8F8sgpB
lpc_rms=-19.86
sample=Clarinet_sustain_FF_G#4.opus
tune=+2
</region>

<region>
hivel=127
key=G#5
loop_end=264318
loop_mode=loop_continuous
loop_start=58655
loop_xfade=24920
lovel=0
lpc=BbbpQqMqRMMSTkNDV7nlwjpEZ0JEDglAyYQFQY+PiMGOmo5B8DzNQew9p8ERjO5Bfz4+wSbOJkBxYxRCgmjEwTFOUT7QbA5CLyBhwWrKsUFUxBjBbG5DQTfdg8AR6txB
lpc_rms=-7.13
sample=Clarinet_sustain_FF_G#5.opus
tune=+1
</region>

<region>
hivel=127
key=G3
loop_end=274089
loop_mode=loop_continuous
loop_start=60823
loop_xfade=25842
lovel=0
lpc=AK/NQVupjsJWv49C2bHvwclTCUEb7yfBFIgXQSDLysBEwudATD7DwAOxlz9VApg+kFr9PwEClsDFRidAUtoYQE2lZr+a996/wzYPQBZoOMBeY8o/alwdwFfbhkDYr/K/
lpc_rms=-22.54
sample=Clarinet_sustain_FF_G3.opus
tune=+1
</region>

<region>
hivel=127
key=G4
loop_end=274096
loop_mode=loop_continuous
loop_start=60825
loop_xfade=25842
lovel=0
lpc=T62nQtfya8NiNmRDupNiwrHLnMHSZfTA12YVwXQ+uUGkrUlBncNXwT/eWsHc1LE+Uig1QRdFm0Ce/wDAkGEVwV43rkACoCjAbfHHQLSiosEugvFBRF7UwGPzo8ExwmRB
lpc_rms=-12.88
sample=Clarinet_sustain_FF_G4.opus
</region>

<region>
hivel=127
key=G5
loop_end=271665
loop_mode=loop_continuous
loop_start=60285
loop_xfade=25613
lovel=0
lpc=qw/uQYWdMMLYZfZBy7IcwVMaT0B8jpE/33c2QeorfsGamlpBwb/OwM2kgUAw3VE/LOvxQPxne8BQxVjAb+EhQfBtD8GxBudApcjzQMpu/cBq/F9A6OeLQIdRFsE8RE5B
lpc_rms=-17.03
sample=Clarinet_sustain_FF_G5.opus
tune=+1
</region>
</group>